<svg width="237" height="30" viewBox="0 0 237 30" fill="none" xmlns="http://www.w3.org/2000/svg">
<rect x="130" y="2" width="5" height="26" rx="1" fill="white"/>
<rect x="137" width="5" height="30" rx="1" fill="white"/>
<rect x="163" width="5" height="30" rx="1" fill="white"/>
<rect x="170" y="2" width="5" height="26" rx="1" fill="white"/>
<rect x="177" y="4" width="5" height="22" rx="1" fill="white"/>
<rect x="121" y="12" width="63" height="6" rx="1" fill="white"/>
<rect x="123" y="4" width="5" height="22" rx="1" fill="white"/>
<path d="M63.9908 22V8.90909H72.9268V11.4787H67.1548V14.1634H72.358V16.7393H67.1548V22H63.9908ZM75.717 22H72.3164L76.7333 8.90909H80.9457L85.3626 22H81.962L78.8874 12.2074H78.7852L75.717 22ZM75.2631 16.848H82.3711V19.2514H75.2631V16.848ZM94.6918 8.90909H97.8494V17.353C97.8494 18.3288 97.6172 19.179 97.1527 19.9034C96.6882 20.6236 96.0405 21.1818 95.2095 21.5781C94.3786 21.9702 93.4134 22.1662 92.3139 22.1662C91.2017 22.1662 90.2301 21.9702 89.3991 21.5781C88.5682 21.1818 87.9226 20.6236 87.4624 19.9034C87.0021 19.179 86.772 18.3288 86.772 17.353V8.90909H89.9361V17.0781C89.9361 17.5298 90.0341 17.9325 90.2301 18.2862C90.4304 18.6399 90.7095 18.9169 91.0675 19.1172C91.4254 19.3175 91.8409 19.4176 92.3139 19.4176C92.7869 19.4176 93.2003 19.3175 93.554 19.1172C93.9119 18.9169 94.1911 18.6399 94.3913 18.2862C94.5916 17.9325 94.6918 17.5298 94.6918 17.0781V8.90909ZM103.035 8.90909L105.426 13.0447H105.528L107.944 8.90909H111.485L107.535 15.4545L111.613 22H107.982L105.528 17.8196H105.426L102.971 22H99.3659L103.425 15.4545L99.4682 8.90909H103.035ZM202.923 13.1854C202.851 12.9169 202.744 12.6804 202.604 12.4759C202.463 12.267 202.291 12.0902 202.086 11.9453C201.882 11.8004 201.647 11.6918 201.383 11.6193C201.119 11.5426 200.829 11.5043 200.514 11.5043C199.879 11.5043 199.329 11.6577 198.865 11.9645C198.404 12.2713 198.048 12.7187 197.797 13.3068C197.546 13.8906 197.42 14.6001 197.42 15.4354C197.42 16.2749 197.541 16.9908 197.784 17.5831C198.027 18.1754 198.379 18.6271 198.839 18.9382C199.299 19.2493 199.857 19.4048 200.514 19.4048C201.093 19.4048 201.583 19.3111 201.984 19.1236C202.389 18.9318 202.695 18.6612 202.904 18.3118C203.113 17.9624 203.218 17.5511 203.218 17.0781L203.806 17.1484H200.622V14.8409H206.267V16.5732C206.267 17.745 206.017 18.7486 205.519 19.5838C205.024 20.419 204.343 21.0604 203.473 21.5078C202.608 21.9553 201.613 22.179 200.488 22.179C199.24 22.179 198.142 21.9084 197.196 21.3672C196.25 20.826 195.513 20.0547 194.985 19.0533C194.456 18.0476 194.192 16.8544 194.192 15.4737C194.192 14.3999 194.352 13.4474 194.671 12.6165C194.991 11.7812 195.436 11.0739 196.007 10.4943C196.583 9.91477 197.247 9.47585 198.002 9.17756C198.76 8.87926 199.576 8.73011 200.45 8.73011C201.208 8.73011 201.914 8.83878 202.566 9.05611C203.222 9.27344 203.801 9.58026 204.304 9.97656C204.811 10.3729 205.222 10.8438 205.538 11.3892C205.853 11.9347 206.049 12.5334 206.126 13.1854H202.923ZM206.917 8.90909H210.452L213.219 14.3871H213.335L216.102 8.90909H219.637L214.849 17.6278V22H211.705V17.6278L206.917 8.90909ZM220.963 8.90909H224.882L228.206 17.0142H228.359L231.683 8.90909H235.601V22H232.52V13.9588H232.412L229.267 21.9169H227.298L224.153 13.9141H224.044V22H220.963V8.90909Z" fill="white"/>
<path d="M0.965199 22V19.7244L5.74006 15.544C6.09801 15.2202 6.4027 14.924 6.65412 14.6555C6.90554 14.3828 7.0973 14.1101 7.2294 13.8374C7.36151 13.5604 7.42756 13.2599 7.42756 12.9361C7.42756 12.5739 7.34872 12.2649 7.19105 12.0092C7.03338 11.7493 6.81605 11.549 6.53906 11.4084C6.26207 11.2678 5.9446 11.1974 5.58665 11.1974C5.22443 11.1974 4.90696 11.272 4.63423 11.4212C4.36151 11.5661 4.14844 11.777 3.99503 12.054C3.84588 12.331 3.77131 12.6676 3.77131 13.0639H0.773438C0.773438 12.1733 0.973722 11.4041 1.37429 10.7564C1.77486 10.1087 2.33736 9.61008 3.06179 9.26065C3.79048 8.90696 4.63636 8.73011 5.59943 8.73011C6.59233 8.73011 7.45526 8.89631 8.18821 9.22869C8.92117 9.56108 9.48793 10.0256 9.88849 10.6222C10.2933 11.2145 10.4957 11.9027 10.4957 12.6868C10.4957 13.1854 10.3956 13.6797 10.1953 14.1697C9.99503 14.6598 9.63494 15.201 9.11506 15.7933C8.59943 16.3857 7.86648 17.0952 6.91619 17.9219L5.35014 19.3665V19.4496H10.6555V22H0.965199ZM17.8578 22.3196C16.7157 22.3196 15.7314 22.049 14.9047 21.5078C14.0779 20.9624 13.4409 20.1804 12.9934 19.1619C12.546 18.1392 12.3244 16.9098 12.3287 15.4737C12.3329 14.0376 12.5566 12.8189 12.9998 11.8175C13.4473 10.8118 14.0822 10.0469 14.9047 9.52273C15.7314 8.99432 16.7157 8.73011 17.8578 8.73011C18.9998 8.73011 19.9842 8.99432 20.8109 9.52273C21.6419 10.0469 22.2811 10.8118 22.7285 11.8175C23.176 12.8232 23.3975 14.0419 23.3933 15.4737C23.3933 16.9141 23.1696 18.1456 22.7221 19.1683C22.2747 20.1911 21.6376 20.973 20.8109 21.5142C19.9885 22.0511 19.0041 22.3196 17.8578 22.3196ZM17.8578 19.7308C18.5396 19.7308 19.0914 19.3835 19.5133 18.6889C19.9352 17.9901 20.144 16.9183 20.1397 15.4737C20.1397 14.5277 20.0439 13.7479 19.8521 13.1342C19.6603 12.5163 19.394 12.0561 19.0531 11.7536C18.7122 11.451 18.3137 11.2997 17.8578 11.2997C17.1802 11.2997 16.6326 11.6428 16.215 12.3288C15.7974 13.0107 15.5865 14.0589 15.5822 15.4737C15.5779 16.4325 15.6696 17.2273 15.8571 17.858C16.0488 18.4886 16.3173 18.9595 16.6625 19.2706C17.0076 19.5774 17.4061 19.7308 17.8578 19.7308ZM25.2054 22V19.7244L29.9803 15.544C30.3382 15.2202 30.6429 14.924 30.8944 14.6555C31.1458 14.3828 31.3375 14.1101 31.4696 13.8374C31.6017 13.5604 31.6678 13.2599 31.6678 12.9361C31.6678 12.5739 31.589 12.2649 31.4313 12.0092C31.2736 11.7493 31.0563 11.549 30.7793 11.4084C30.5023 11.2678 30.1848 11.1974 29.8269 11.1974C29.4647 11.1974 29.1472 11.272 28.8745 11.4212C28.6017 11.5661 28.3887 11.777 28.2353 12.054C28.0861 12.331 28.0115 12.6676 28.0115 13.0639H25.0137C25.0137 12.1733 25.214 11.4041 25.6145 10.7564C26.0151 10.1087 26.5776 9.61008 27.302 9.26065C28.0307 8.90696 28.8766 8.73011 29.8397 8.73011C30.8326 8.73011 31.6955 8.89631 32.4284 9.22869C33.1614 9.56108 33.7282 10.0256 34.1287 10.6222C34.5336 11.2145 34.736 11.9027 34.736 12.6868C34.736 13.1854 34.6358 13.6797 34.4355 14.1697C34.2353 14.6598 33.8752 15.201 33.3553 15.7933C32.8397 16.3857 32.1067 17.0952 31.1564 17.9219L29.5904 19.3665V19.4496H34.8958V22H25.2054ZM36.6839 22V19.7244L41.4588 15.544C41.8168 15.2202 42.1214 14.924 42.3729 14.6555C42.6243 14.3828 42.8161 14.1101 42.9482 13.8374C43.0803 13.5604 43.1463 13.2599 43.1463 12.9361C43.1463 12.5739 43.0675 12.2649 42.9098 12.0092C42.7521 11.7493 42.5348 11.549 42.2578 11.4084C41.9808 11.2678 41.6634 11.1974 41.3054 11.1974C40.9432 11.1974 40.6257 11.272 40.353 11.4212C40.0803 11.5661 39.8672 11.777 39.7138 12.054C39.5646 12.331 39.4901 12.6676 39.4901 13.0639H36.4922C36.4922 12.1733 36.6925 11.4041 37.093 10.7564C37.4936 10.1087 38.0561 9.61008 38.7805 9.26065C39.5092 8.90696 40.3551 8.73011 41.3182 8.73011C42.3111 8.73011 43.174 8.89631 43.907 9.22869C44.6399 9.56108 45.2067 10.0256 45.6072 10.6222C46.0121 11.2145 46.2145 11.9027 46.2145 12.6868C46.2145 13.1854 46.1143 13.6797 45.9141 14.1697C45.7138 14.6598 45.3537 15.201 44.8338 15.7933C44.3182 16.3857 43.5852 17.0952 42.6349 17.9219L41.0689 19.3665V19.4496H46.3743V22H36.6839Z" fill="white"/>
</svg>
