<svg width="174" height="30" viewBox="0 0 174 30" fill="none" xmlns="http://www.w3.org/2000/svg">
<rect x="67" y="2" width="5" height="26" rx="1" fill="white"/>
<rect x="74" width="5" height="30" rx="1" fill="white"/>
<rect x="100" width="5" height="30" rx="1" fill="white"/>
<rect x="107" y="2" width="5" height="26" rx="1" fill="white"/>
<rect x="114" y="4" width="5" height="22" rx="1" fill="white"/>
<rect x="58" y="12" width="63" height="6" rx="1" fill="white"/>
<rect x="60" y="4" width="5" height="22" rx="1" fill="white"/>
<path d="M0.990767 22V8.90909H9.92685V11.4787H4.15483V14.1634H9.35795V16.7393H4.15483V22H0.990767ZM12.717 22H9.31641L13.7333 8.90909H17.9457L22.3626 22H18.962L15.8874 12.2074H15.7852L12.717 22ZM12.2631 16.848H19.3711V19.2514H12.2631V16.848ZM31.6918 8.90909H34.8494V17.353C34.8494 18.3288 34.6172 19.179 34.1527 19.9034C33.6882 20.6236 33.0405 21.1818 32.2095 21.5781C31.3786 21.9702 30.4134 22.1662 29.3139 22.1662C28.2017 22.1662 27.2301 21.9702 26.3991 21.5781C25.5682 21.1818 24.9226 20.6236 24.4624 19.9034C24.0021 19.179 23.772 18.3288 23.772 17.353V8.90909H26.9361V17.0781C26.9361 17.5298 27.0341 17.9325 27.2301 18.2862C27.4304 18.6399 27.7095 18.9169 28.0675 19.1172C28.4254 19.3175 28.8409 19.4176 29.3139 19.4176C29.7869 19.4176 30.2003 19.3175 30.554 19.1172C30.9119 18.9169 31.1911 18.6399 31.3913 18.2862C31.5916 17.9325 31.6918 17.5298 31.6918 17.0781V8.90909ZM40.035 8.90909L42.4256 13.0447H42.5279L44.9441 8.90909H48.4853L44.535 15.4545L48.6131 22H44.9824L42.5279 17.8196H42.4256L39.9711 22H36.3659L40.4249 15.4545L36.4682 8.90909H40.035ZM139.923 13.1854C139.851 12.9169 139.744 12.6804 139.604 12.4759C139.463 12.267 139.291 12.0902 139.086 11.9453C138.882 11.8004 138.647 11.6918 138.383 11.6193C138.119 11.5426 137.829 11.5043 137.514 11.5043C136.879 11.5043 136.329 11.6577 135.865 11.9645C135.404 12.2713 135.048 12.7187 134.797 13.3068C134.546 13.8906 134.42 14.6001 134.42 15.4354C134.42 16.2749 134.541 16.9908 134.784 17.5831C135.027 18.1754 135.379 18.6271 135.839 18.9382C136.299 19.2493 136.857 19.4048 137.514 19.4048C138.093 19.4048 138.583 19.3111 138.984 19.1236C139.389 18.9318 139.695 18.6612 139.904 18.3118C140.113 17.9624 140.218 17.5511 140.218 17.0781L140.806 17.1484H137.622V14.8409H143.267V16.5732C143.267 17.745 143.017 18.7486 142.519 19.5838C142.024 20.419 141.343 21.0604 140.473 21.5078C139.608 21.9553 138.613 22.179 137.488 22.179C136.24 22.179 135.142 21.9084 134.196 21.3672C133.25 20.826 132.513 20.0547 131.985 19.0533C131.456 18.0476 131.192 16.8544 131.192 15.4737C131.192 14.3999 131.352 13.4474 131.671 12.6165C131.991 11.7812 132.436 11.0739 133.007 10.4943C133.583 9.91477 134.247 9.47585 135.002 9.17756C135.76 8.87926 136.576 8.73011 137.45 8.73011C138.208 8.73011 138.914 8.83878 139.566 9.05611C140.222 9.27344 140.801 9.58026 141.304 9.97656C141.811 10.3729 142.222 10.8438 142.538 11.3892C142.853 11.9347 143.049 12.5334 143.126 13.1854H139.923ZM143.917 8.90909H147.452L150.219 14.3871H150.335L153.102 8.90909H156.637L151.849 17.6278V22H148.705V17.6278L143.917 8.90909ZM157.963 8.90909H161.882L165.206 17.0142H165.359L168.683 8.90909H172.601V22H169.52V13.9588H169.412L166.267 21.9169H164.298L161.153 13.9141H161.044V22H157.963V8.90909Z" fill="white"/>
</svg>
