<svg width="116" height="20" viewBox="0 0 116 20" fill="none" xmlns="http://www.w3.org/2000/svg">
<rect x="44.5715" y="1.33334" width="3.28042" height="17.3333" rx="0.666667" fill="white"/>
<rect x="49.1641" width="3.28042" height="20" rx="0.666667" fill="white"/>
<rect x="66.2223" width="3.28042" height="20" rx="0.666667" fill="white"/>
<rect x="70.8148" y="1.33334" width="3.28042" height="17.3333" rx="0.666667" fill="white"/>
<rect x="75.4075" y="2.66666" width="3.28042" height="14.6667" rx="0.666667" fill="white"/>
<rect x="38.6667" y="8" width="41.3333" height="4" rx="0.666667" fill="white"/>
<rect x="39.9789" y="2.66666" width="3.28042" height="14.6667" rx="0.666667" fill="white"/>
<path d="M0.660511 14.6667V5.93942H6.6179V7.65248H2.76989V9.44226H6.23864V11.1596H2.76989V14.6667H0.660511ZM8.47798 14.6667H6.21094L9.15554 5.93942H11.9638L14.9084 14.6667H12.6413L10.5916 8.13828H10.5234L8.47798 14.6667ZM8.17542 11.232H12.9141V12.8343H8.17542V11.232ZM21.1278 5.93942H23.233V11.5687C23.233 12.2192 23.0781 12.786 22.7685 13.269C22.4588 13.7491 22.027 14.1212 21.473 14.3854C20.919 14.6468 20.2756 14.7775 19.5426 14.7775C18.8011 14.7775 18.1534 14.6468 17.5994 14.3854C17.0455 14.1212 16.6151 13.7491 16.3082 13.269C16.0014 12.786 15.848 12.2192 15.848 11.5687V5.93942H17.9574V11.3854C17.9574 11.6866 18.0227 11.955 18.1534 12.1908C18.2869 12.4266 18.473 12.6113 18.7116 12.7448C18.9503 12.8783 19.2273 12.9451 19.5426 12.9451C19.858 12.9451 20.1335 12.8783 20.3693 12.7448C20.608 12.6113 20.794 12.4266 20.9276 12.1908C21.0611 11.955 21.1278 11.6866 21.1278 11.3854V5.93942ZM26.69 5.93942L28.2837 8.69652H28.3519L29.9627 5.93942H32.3235L29.69 10.3031L32.4087 14.6667H29.9883L28.3519 11.8798H28.2837L26.6474 14.6667H24.244L26.9499 10.3031L24.3121 5.93942H26.69Z" fill="white"/>
<path d="M91.7213 8.79027C91.673 8.61129 91.602 8.45362 91.5082 8.31726C91.4145 8.17805 91.2994 8.06015 91.163 7.96356C91.0267 7.86697 90.8704 7.79453 90.6943 7.74623C90.5182 7.6951 90.325 7.66953 90.1147 7.66953C89.6915 7.66953 89.325 7.7718 89.0153 7.97635C88.7085 8.18089 88.4713 8.47919 88.3037 8.87123C88.1361 9.26044 88.0522 9.73345 88.0522 10.2903C88.0522 10.8499 88.1332 11.3272 88.2951 11.7221C88.4571 12.117 88.6915 12.4181 88.9983 12.6255C89.3051 12.8329 89.6772 12.9366 90.1147 12.9366C90.5011 12.9366 90.8278 12.8741 91.0949 12.7491C91.3647 12.6212 91.5693 12.4408 91.7085 12.2079C91.8477 11.9749 91.9173 11.7008 91.9173 11.3854L92.3093 11.4323H90.1872V9.89396H93.95V11.0488C93.95 11.83 93.7838 12.4991 93.4514 13.0559C93.1218 13.6127 92.6673 14.0403 92.0878 14.3386C91.5111 14.6369 90.8477 14.786 90.0977 14.786C89.2653 14.786 88.5338 14.6056 87.9031 14.2448C87.2724 13.884 86.7809 13.3698 86.4287 12.7022C86.0764 12.0317 85.9003 11.2363 85.9003 10.3158C85.9003 9.59993 86.0068 8.96498 86.2199 8.41101C86.4329 7.85419 86.7298 7.3826 87.1105 6.99623C87.494 6.60987 87.9372 6.31726 88.44 6.11839C88.9457 5.91953 89.4897 5.8201 90.0721 5.8201C90.5778 5.8201 91.048 5.89254 91.4826 6.03743C91.9201 6.18231 92.3065 6.38686 92.6417 6.65106C92.9798 6.91527 93.2539 7.22919 93.4642 7.59282C93.6744 7.95646 93.8051 8.35561 93.8562 8.79027H91.7213ZM94.3836 5.93942H96.7401L98.5853 9.5914H98.662L100.507 5.93942H102.864L99.6719 11.7519V14.6667H97.5753V11.7519L94.3836 5.93942ZM103.748 5.93942H106.36L108.576 11.3428H108.678L110.894 5.93942H113.506V14.6667H111.452V9.30589H111.38L109.283 14.6113H107.971L105.874 9.27606H105.802V14.6667H103.748V5.93942Z" fill="white"/>
</svg>
