<svg width="903" height="412" viewBox="0 0 903 412" fill="none" xmlns="http://www.w3.org/2000/svg">
<circle cx="26.1845" cy="26.7045" r="25.7724" fill="#C06E52"/>
<circle cx="26.1845" cy="265.794" r="25.7724" fill="#C06E52"/>
<circle cx="26.1845" cy="146.249" r="25.7724" fill="#C06E52"/>
<circle cx="26.1845" cy="385.338" r="25.7724" fill="#C06E52"/>
<circle cx="490.087" cy="26.7045" r="25.7724" fill="#C06E52"/>
<circle cx="490.087" cy="265.794" r="25.7724" fill="#C06E52"/>
<circle cx="490.087" cy="146.249" r="25.7724" fill="#C06E52"/>
<circle cx="490.087" cy="385.338" r="25.7724" fill="#C06E52"/>
<circle cx="180.819" cy="26.7045" r="25.7724" fill="#C06E52"/>
<circle cx="180.819" cy="265.794" r="25.7724" fill="#C06E52"/>
<circle cx="180.819" cy="146.249" r="25.7724" fill="#C06E52"/>
<circle cx="180.819" cy="385.338" r="25.7724" fill="#C06E52"/>
<circle cx="644.721" cy="26.7045" r="25.7724" fill="#C06E52"/>
<circle cx="644.721" cy="265.794" r="25.7724" fill="#C06E52"/>
<circle cx="644.721" cy="146.249" r="25.7724" fill="#C06E52"/>
<circle cx="644.721" cy="385.338" r="25.7724" fill="#C06E52"/>
<circle cx="335.453" cy="26.7045" r="25.7724" fill="#C06E52"/>
<circle cx="335.453" cy="265.794" r="25.7724" fill="#C06E52"/>
<circle cx="335.453" cy="146.249" r="25.7724" fill="#C06E52"/>
<circle cx="335.453" cy="385.338" r="25.7724" fill="#C06E52"/>
<circle cx="799.356" cy="26.7045" r="25.7724" fill="#C06E52"/>
<circle cx="799.356" cy="265.794" r="25.7724" fill="#C06E52"/>
<circle cx="799.356" cy="146.249" r="25.7724" fill="#C06E52"/>
<circle cx="799.356" cy="385.338" r="25.7724" fill="#C06E52"/>
<circle cx="103.502" cy="26.7045" r="25.7724" fill="#C06E52"/>
<circle cx="103.502" cy="265.794" r="25.7724" fill="#C06E52"/>
<circle cx="103.502" cy="146.249" r="25.7724" fill="#C06E52"/>
<circle cx="103.502" cy="385.338" r="25.7724" fill="#C06E52"/>
<circle cx="567.404" cy="26.7045" r="25.7724" fill="#C06E52"/>
<circle cx="567.404" cy="265.794" r="25.7724" fill="#C06E52"/>
<circle cx="567.404" cy="146.249" r="25.7724" fill="#C06E52"/>
<circle cx="567.404" cy="385.338" r="25.7724" fill="#C06E52"/>
<circle cx="258.136" cy="26.7045" r="25.7724" fill="#C06E52"/>
<circle cx="258.136" cy="265.794" r="25.7724" fill="#C06E52"/>
<circle cx="258.136" cy="146.249" r="25.7724" fill="#C06E52"/>
<circle cx="258.136" cy="385.338" r="25.7724" fill="#C06E52"/>
<circle cx="722.039" cy="26.7045" r="25.7724" fill="#C06E52"/>
<circle cx="722.039" cy="265.794" r="25.7724" fill="#C06E52"/>
<circle cx="722.039" cy="146.249" r="25.7724" fill="#C06E52"/>
<circle cx="722.039" cy="385.338" r="25.7724" fill="#C06E52"/>
<circle cx="412.77" cy="26.7045" r="25.7724" fill="#C06E52"/>
<circle cx="412.77" cy="265.794" r="25.7724" fill="#C06E52"/>
<circle cx="412.77" cy="146.249" r="25.7724" fill="#C06E52"/>
<circle cx="412.77" cy="385.338" r="25.7724" fill="#C06E52"/>
<circle cx="876.673" cy="26.7045" r="25.7724" fill="#C06E52"/>
<circle cx="876.673" cy="265.794" r="25.7724" fill="#C06E52"/>
<circle cx="876.673" cy="146.249" r="25.7724" fill="#C06E52"/>
<circle cx="876.673" cy="385.338" r="25.7724" fill="#C06E52"/>
</svg>
