<svg width="732" height="230" viewBox="0 0 732 230" fill="none" xmlns="http://www.w3.org/2000/svg">
<circle cx="20.8981" cy="20.8981" r="20.8981" fill="#D9D9D9"/>
<circle cx="20.8981" cy="146.287" r="20.8981" fill="#D9D9D9"/>
<circle cx="20.8981" cy="83.5924" r="20.8981" fill="#D9D9D9"/>
<circle cx="20.8981" cy="208.981" r="20.8981" fill="#D9D9D9"/>
<circle cx="397.064" cy="20.8981" r="20.8981" fill="#D9D9D9"/>
<circle cx="397.064" cy="146.287" r="20.8981" fill="#D9D9D9"/>
<circle cx="397.064" cy="83.5924" r="20.8981" fill="#D9D9D9"/>
<circle cx="397.064" cy="208.981" r="20.8981" fill="#D9D9D9"/>
<circle cx="146.287" cy="20.8981" r="20.8981" fill="#D9D9D9"/>
<circle cx="146.287" cy="146.287" r="20.8981" fill="#D9D9D9"/>
<circle cx="146.287" cy="83.5924" r="20.8981" fill="#D9D9D9"/>
<circle cx="146.287" cy="208.981" r="20.8981" fill="#D9D9D9"/>
<circle cx="522.453" cy="20.8981" r="20.8981" fill="#D9D9D9"/>
<circle cx="522.453" cy="146.287" r="20.8981" fill="#D9D9D9"/>
<circle cx="522.453" cy="83.5924" r="20.8981" fill="#D9D9D9"/>
<circle cx="522.453" cy="208.981" r="20.8981" fill="#D9D9D9"/>
<circle cx="271.675" cy="20.8981" r="20.8981" fill="#D9D9D9"/>
<circle cx="271.675" cy="146.287" r="20.8981" fill="#D9D9D9"/>
<circle cx="271.675" cy="83.5924" r="20.8981" fill="#D9D9D9"/>
<circle cx="271.675" cy="208.981" r="20.8981" fill="#D9D9D9"/>
<circle cx="647.841" cy="20.8981" r="20.8981" fill="#D9D9D9"/>
<circle cx="647.841" cy="146.287" r="20.8981" fill="#D9D9D9"/>
<circle cx="647.841" cy="83.5924" r="20.8981" fill="#D9D9D9"/>
<circle cx="647.841" cy="208.981" r="20.8981" fill="#D9D9D9"/>
<circle cx="83.5924" cy="20.8981" r="20.8981" fill="#D9D9D9"/>
<circle cx="83.5924" cy="146.287" r="20.8981" fill="#D9D9D9"/>
<circle cx="83.5924" cy="83.5924" r="20.8981" fill="#D9D9D9"/>
<circle cx="83.5924" cy="208.981" r="20.8981" fill="#D9D9D9"/>
<circle cx="459.758" cy="20.8981" r="20.8981" fill="#D9D9D9"/>
<circle cx="459.758" cy="146.287" r="20.8981" fill="#D9D9D9"/>
<circle cx="459.758" cy="83.5924" r="20.8981" fill="#D9D9D9"/>
<circle cx="459.758" cy="208.981" r="20.8981" fill="#D9D9D9"/>
<circle cx="208.981" cy="20.8981" r="20.8981" fill="#D9D9D9"/>
<circle cx="208.981" cy="146.287" r="20.8981" fill="#D9D9D9"/>
<circle cx="208.981" cy="83.5924" r="20.8981" fill="#D9D9D9"/>
<circle cx="208.981" cy="208.981" r="20.8981" fill="#D9D9D9"/>
<circle cx="585.147" cy="20.8981" r="20.8981" fill="#D9D9D9"/>
<circle cx="585.147" cy="146.287" r="20.8981" fill="#D9D9D9"/>
<circle cx="585.147" cy="83.5924" r="20.8981" fill="#D9D9D9"/>
<circle cx="585.147" cy="208.981" r="20.8981" fill="#D9D9D9"/>
<circle cx="334.37" cy="20.8981" r="20.8981" fill="#D9D9D9"/>
<circle cx="334.37" cy="146.287" r="20.8981" fill="#D9D9D9"/>
<circle cx="334.37" cy="83.5924" r="20.8981" fill="#D9D9D9"/>
<circle cx="334.37" cy="208.981" r="20.8981" fill="#D9D9D9"/>
<circle cx="710.536" cy="20.8981" r="20.8981" fill="#D9D9D9"/>
<circle cx="710.536" cy="146.287" r="20.8981" fill="#D9D9D9"/>
<circle cx="710.536" cy="83.5924" r="20.8981" fill="#D9D9D9"/>
<circle cx="710.536" cy="208.981" r="20.8981" fill="#D9D9D9"/>
</svg>
